<svg width="134" height="60" viewBox="0 0 134 60" fill="none" xmlns="http://www.w3.org/2000/svg">
<rect x="134" width="6" height="6" transform="rotate(90 134 0)" fill="#91E9AD"/>
<rect x="134" y="16" width="6" height="6" transform="rotate(90 134 16)" fill="#91E9AD"/>
<rect x="134" y="32" width="6" height="6" transform="rotate(90 134 32)" fill="#91E9AD"/>
<rect x="134" y="48" width="6" height="6" transform="rotate(90 134 48)" fill="#91E9AD"/>
<rect x="118" width="6" height="6" transform="rotate(90 118 0)" fill="#91E9AD"/>
<rect x="118" y="16" width="6" height="6" transform="rotate(90 118 16)" fill="#91E9AD"/>
<rect x="118" y="32" width="6" height="6" transform="rotate(90 118 32)" fill="#91E9AD"/>
<rect x="118" y="48" width="6" height="6" transform="rotate(90 118 48)" fill="#91E9AD"/>
<rect x="102" width="6" height="6" transform="rotate(90 102 0)" fill="#91E9AD"/>
<rect x="102" y="16" width="6" height="6" transform="rotate(90 102 16)" fill="#91E9AD"/>
<rect x="102" y="32" width="6" height="6" transform="rotate(90 102 32)" fill="#91E9AD"/>
<rect x="102" y="48" width="6" height="6" transform="rotate(90 102 48)" fill="#91E9AD"/>
<rect x="86" y="-3.8147e-06" width="6" height="6" transform="rotate(90 86 -3.8147e-06)" fill="#91E9AD"/>
<rect x="86" y="16" width="6" height="6" transform="rotate(90 86 16)" fill="#91E9AD"/>
<rect x="86" y="32" width="6" height="6" transform="rotate(90 86 32)" fill="#91E9AD"/>
<rect x="86" y="48" width="6" height="6" transform="rotate(90 86 48)" fill="#91E9AD"/>
<rect x="70" y="-3.8147e-06" width="6" height="6" transform="rotate(90 70 -3.8147e-06)" fill="#91E9AD"/>
<rect x="70" y="16" width="6" height="6" transform="rotate(90 70 16)" fill="#91E9AD"/>
<rect x="70" y="32" width="6" height="6" transform="rotate(90 70 32)" fill="#91E9AD"/>
<rect x="70" y="48" width="6" height="6" transform="rotate(90 70 48)" fill="#91E9AD"/>
<rect x="54" y="-3.8147e-06" width="6" height="6" transform="rotate(90 54 -3.8147e-06)" fill="#91E9AD"/>
<rect x="54" y="16" width="6" height="6" transform="rotate(90 54 16)" fill="#91E9AD"/>
<rect x="54" y="32" width="6" height="6" transform="rotate(90 54 32)" fill="#91E9AD"/>
<rect x="54" y="48" width="6" height="6" transform="rotate(90 54 48)" fill="#91E9AD"/>
<rect x="38" y="-3.8147e-06" width="6" height="6" transform="rotate(90 38 -3.8147e-06)" fill="#91E9AD"/>
<rect x="38" y="16" width="6" height="6" transform="rotate(90 38 16)" fill="#91E9AD"/>
<rect x="38" y="32" width="6" height="6" transform="rotate(90 38 32)" fill="#91E9AD"/>
<rect x="38" y="48" width="6" height="6" transform="rotate(90 38 48)" fill="#91E9AD"/>
<rect x="22" y="-3.8147e-06" width="6" height="6" transform="rotate(90 22 -3.8147e-06)" fill="#91E9AD"/>
<rect x="22" y="16" width="6" height="6" transform="rotate(90 22 16)" fill="#91E9AD"/>
<rect x="22" y="32" width="6" height="6" transform="rotate(90 22 32)" fill="#91E9AD"/>
<rect x="22" y="48" width="6" height="6" transform="rotate(90 22 48)" fill="#91E9AD"/>
<rect x="6" y="-3.8147e-06" width="6" height="6" transform="rotate(90 6 -3.8147e-06)" fill="#91E9AD"/>
<rect x="6" y="16" width="6" height="6" transform="rotate(90 6 16)" fill="#91E9AD"/>
<rect x="6" y="32" width="6" height="6" transform="rotate(90 6 32)" fill="#91E9AD"/>
<rect x="6" y="48" width="6" height="6" transform="rotate(90 6 48)" fill="#91E9AD"/>
</svg>
