<svg width="32" height="32" viewBox="0 0 32 32" fill="none" xmlns="http://www.w3.org/2000/svg">
<rect x="0.5" y="0.5" width="31" height="31" rx="15.5" stroke="white"/>
<path d="M17.0989 23.9999V18.2889C17.1525 18.2862 17.2007 18.2818 17.2486 18.2818C17.7702 18.2813 18.2915 18.2813 18.8131 18.2818C18.8776 18.2818 18.9339 18.2903 18.9465 18.1934C19.0392 17.4752 19.1375 16.7578 19.2365 16.0213H17.1251C17.1085 15.9961 17.0989 15.9884 17.0992 15.9813C17.1147 15.4264 17.1019 14.8685 17.1558 14.3175C17.2004 13.86 17.4584 13.5216 17.9201 13.384C18.0102 13.3571 18.107 13.3432 18.2009 13.3418C18.5672 13.3372 18.9334 13.3399 19.304 13.3399C19.3108 13.2652 19.3165 13.2299 19.3168 13.1949C19.3176 12.643 19.3171 12.0914 19.3179 11.5396C19.3179 11.4739 19.323 11.4148 19.2316 11.4006C18.6178 11.3048 18.0045 11.1792 17.3803 11.2638C17.0407 11.3097 16.6951 11.3639 16.3722 11.4739C15.5632 11.7489 15.1137 12.3735 14.8479 13.158C14.7034 13.5837 14.6814 14.0242 14.6797 14.4674C14.6781 14.9372 14.6797 15.4067 14.6797 15.8765C14.6797 15.9167 14.6797 15.957 14.6797 16.0109H12.691V18.2763H14.6653V23.9627C11.3041 23.4812 7.94539 20.3292 8.00062 15.9197C8.05668 11.4835 11.7202 7.93124 16.1656 8.00101C20.5507 8.06969 24.0945 11.7762 23.9982 16.2103C23.9032 20.585 20.4694 23.6177 17.0989 23.9999Z" fill="white"/>
</svg>
