<svg width="33" height="32" viewBox="0 0 33 32" fill="none" xmlns="http://www.w3.org/2000/svg">
<rect x="0.795288" width="32" height="32" rx="16" fill="#1E9B46"/>
<path d="M18.6273 11.1602C19.7393 12.0169 20.2953 13.0469 20.2953 14.25C20.2953 15.4531 19.7393 16.4831 18.6273 17.3398C17.5153 18.1966 16.1755 18.625 14.6078 18.625C13.514 18.625 12.5023 18.3971 11.5726 17.9414C10.7888 18.3971 9.97758 18.625 9.13904 18.625C9.10258 18.625 9.06612 18.6159 9.02966 18.5977C8.9932 18.5612 8.96586 18.5247 8.94763 18.4883C8.91117 18.3971 8.92029 18.3151 8.97498 18.2422C9.35779 17.8776 9.68591 17.3854 9.95935 16.7656C9.26664 16.0182 8.92029 15.1797 8.92029 14.25C8.92029 13.0469 9.47628 12.0169 10.5883 11.1602C11.7002 10.3034 13.0401 9.875 14.6078 9.875C16.1755 9.875 17.5153 10.3034 18.6273 11.1602ZM23.6312 20.2656C23.9047 20.8854 24.2328 21.3776 24.6156 21.7422C24.6703 21.8151 24.6794 21.8971 24.6429 21.9883C24.6065 22.0794 24.5427 22.125 24.4515 22.125C23.613 22.125 22.8018 21.8971 22.0179 21.4414C21.0883 21.8971 20.0765 22.125 18.9828 22.125C17.8161 22.125 16.7588 21.8789 15.8109 21.3867C14.863 20.8945 14.1703 20.2474 13.7328 19.4453C14.0609 19.4818 14.3526 19.5 14.6078 19.5C16.4125 19.5 17.9528 18.9896 19.2289 17.9688C20.5232 16.9297 21.1703 15.6901 21.1703 14.25C21.1703 14.0495 21.1612 13.8672 21.1429 13.7031C22.182 14.0312 23.0297 14.569 23.6859 15.3164C24.3422 16.0456 24.6703 16.8568 24.6703 17.75C24.6703 18.6797 24.3239 19.5182 23.6312 20.2656Z" fill="white"/>
</svg>
