<svg width="32" height="32" viewBox="0 0 32 32" fill="none" xmlns="http://www.w3.org/2000/svg">
<rect x="0.5" y="0.5" width="31" height="31" rx="15.5" stroke="white"/>
<path d="M22.5664 22.4805C22.4844 22.7812 22.2383 23 21.9375 23C14.9102 23 9.25 17.3125 9.25 10.3125C9.25 9.98437 9.44141 9.73828 9.74219 9.65625L12.5859 9C12.8867 8.94531 13.2148 9.08203 13.3516 9.38281L14.6641 12.4453C14.7734 12.7187 14.6914 13.0195 14.4727 13.2109L12.8047 14.5781C13.8164 16.7109 15.5664 18.4336 17.6445 19.418L19.0117 17.75C19.2031 17.5312 19.5039 17.4492 19.7773 17.5586L22.8398 18.8711C23.1406 19.0078 23.3047 19.3359 23.2227 19.6367L22.5664 22.4805Z" fill="white"/>
</svg>
