<svg width="43" height="42" viewBox="0 0 43 42" fill="none" xmlns="http://www.w3.org/2000/svg">
<path d="M13.1647 13.1206C15.446 10.8394 18.196 9.69873 21.4147 9.69873C24.6335 9.69873 27.3679 10.8394 29.6179 13.1206C31.8991 15.3706 33.0397 18.105 33.0397 21.3237C33.0397 24.5425 31.8991 27.2925 29.6179 29.5737C27.3679 31.8237 24.6335 32.9487 21.4147 32.9487C18.196 32.9487 15.446 31.8237 13.1647 29.5737C10.9147 27.2925 9.78973 24.5425 9.78973 21.3237C9.78973 18.105 10.9147 15.3706 13.1647 13.1206ZM24.0866 26.105C24.3991 26.3237 24.6647 26.2925 24.8835 26.0112L26.196 24.1831C26.4147 23.8706 26.3835 23.605 26.1022 23.3862L23.1022 21.23V14.7612C23.1022 14.3862 22.9147 14.1987 22.5397 14.1987H20.2897C19.9147 14.1987 19.7272 14.3862 19.7272 14.7612V22.6362C19.7272 22.8237 19.8054 22.98 19.9616 23.105L24.0866 26.105Z" fill="#1E9B46"/>
</svg>
