<svg width="68" height="68" viewBox="0 0 68 68" fill="none" xmlns="http://www.w3.org/2000/svg">
<path d="M33.71 67.42C52.3275 67.42 67.42 52.3275 67.42 33.71C67.42 15.0925 52.3275 0 33.71 0C15.0925 0 0 15.0925 0 33.71C0 52.3275 15.0925 67.42 33.71 67.42Z" fill="#1E9B46"/>
<path d="M56.54 42.12C55.97 41.51 55.38 40.92 54.77 40.35C53.8 39.46 52.68 39.27 51.46 39.74C51.2 39.84 51.05 39.81 50.87 39.62C50.04 38.77 49.2 37.92 48.34 37.1C48.09 36.86 48.09 36.72 48.32 36.45C49.84 34.68 49.12 32.04 46.92 31.29C46.62 31.19 46.59 31.06 46.63 30.78C46.85 29.09 46.01 27.74 44.4 27.18C44.18 27.1 44.13 27.05 44.17 26.8C44.47 25.15 43.6 23.66 42.01 23.13C41.7 23.03 41.7 22.88 41.75 22.63C42.04 20.9 40.93 19.31 39.22 18.94C38.8 18.85 38.39 18.93 37.98 18.85C35.98 18.47 33.98 18.08 31.98 17.71C31 17.53 30.01 17.4 29.17 18.15C29.05 18.26 28.95 18.2 28.83 18.17C26.39 17.62 24.42 19.43 24.79 21.89C24.83 22.17 24.74 22.22 24.53 22.29C22.95 22.83 22.07 24.27 22.34 25.91C22.38 26.16 22.36 26.28 22.08 26.37C20.1 27.05 19.27 29.14 20.23 30.98C20.35 31.21 20.34 31.27 20.1 31.39C18.07 32.36 17.58 34.82 19.08 36.51C19.27 36.72 19.27 36.82 19.07 37.02C18.19 37.87 17.33 38.73 16.48 39.61C16.29 39.8 16.15 39.84 15.88 39.75C14.9 39.41 13.88 39.46 13.12 40.15C11.86 41.28 10.33 42.25 10.07 44.17C10.07 44.17 10.04 44.18 10.03 44.19V44.47C10.03 44.47 10.07 44.47 10.07 44.49C10.18 45.72 10.95 46.55 11.8 47.33C12.23 47.73 12.63 48.16 13.05 48.57C13.46 48.96 14 48.98 14.38 48.62C14.77 48.25 14.78 47.69 14.37 47.26C13.75 46.62 13.1 45.99 12.47 45.36C11.81 44.69 11.81 44.01 12.47 43.34C12.95 42.86 13.43 42.37 13.91 41.9C14.5 41.33 15.05 41.32 15.71 41.84C16.24 42.25 16.68 42.75 17.15 43.22C19.78 45.84 22.4 48.46 25.03 51.08C25.31 51.36 25.55 51.68 25.85 51.95C26.24 52.3 26.24 53.05 25.85 53.48C25.26 54.12 24.65 54.73 24.01 55.31C23.5 55.77 22.84 55.71 22.3 55.19C21.62 54.54 20.97 53.85 20.29 53.2C19.94 52.86 19.46 52.82 19.11 53.07C18.74 53.33 18.63 53.7 18.74 54.13C18.79 54.31 18.91 54.45 19.04 54.59C19.7 55.24 20.36 55.89 21.01 56.56C21.46 57.03 22.05 57.24 22.63 57.48H23.74C25.43 57.02 26.41 55.66 27.44 54.43C28.18 53.54 28.17 52.43 27.66 51.37C27.55 51.13 27.56 51.01 27.75 50.82C28.81 49.78 29.86 48.73 30.9 47.68C31.16 47.42 31.46 47.3 31.8 47.28C32.53 47.22 33.25 47.28 33.97 47.33C34.25 47.35 34.54 47.42 34.8 47.37C35.8 47.17 36.46 47.61 37.09 48.33C37.88 49.23 38.78 50.05 39.64 50.89C39.83 51.08 39.86 51.22 39.76 51.48C39.28 52.7 39.49 53.82 40.37 54.78C40.93 55.39 41.54 55.97 42.14 56.55C42.62 57.02 43.21 57.27 43.86 57.38C43.95 57.4 44.09 57.33 44.13 57.48H44.22C44.24 57.37 44.33 57.39 44.4 57.39C45.19 57.36 45.88 57.08 46.44 56.52C49.8 53.17 53.17 49.83 56.51 46.46C57.72 45.24 57.71 43.4 56.55 42.15L56.54 42.12ZM30.98 19.46C32.54 19.72 34.1 20.01 35.76 20.31C34.94 21.13 34.2 21.87 33.47 22.61C33.36 22.72 33.27 22.73 33.15 22.66C32.05 21.99 31.13 21.14 30.6 19.94C30.4 19.49 30.48 19.38 30.98 19.46ZM26.77 20.57C27.1 20.03 27.72 19.8 28.34 19.98C28.56 20.04 28.69 20.16 28.78 20.39C29.58 22.4 31.03 23.78 33.01 24.62C33.25 24.72 33.39 24.86 33.46 25.1C33.72 25.99 33.07 26.86 32.15 26.86C31.76 26.86 31.43 26.72 31.15 26.44C29.76 25.06 28.37 23.67 26.99 22.28C26.5 21.79 26.44 21.13 26.77 20.58V20.57ZM24.52 24.4C25.06 23.86 25.88 23.84 26.47 24.41C27.61 25.52 28.73 26.64 29.84 27.77C30.27 28.21 30.36 28.74 30.12 29.31C29.89 29.84 29.45 30.09 28.88 30.1C28.48 30.1 28.16 29.95 27.89 29.68C26.78 28.57 25.66 27.46 24.56 26.34C23.99 25.75 23.99 24.94 24.53 24.39L24.52 24.4ZM22.1 28.45C22.6 27.97 23.4 27.91 23.91 28.39C24.85 29.28 25.75 30.21 26.66 31.13C26.89 31.37 26.99 31.68 26.98 32.02C26.97 32.56 26.72 32.97 26.25 33.21C25.76 33.46 25.23 33.46 24.82 33.09C23.82 32.2 22.87 31.25 21.98 30.25C21.51 29.73 21.61 28.93 22.11 28.45H22.1ZM20.36 33.47C20.77 32.97 21.47 32.79 22.02 33.12C22.66 33.5 23.16 34.06 23.58 34.67C23.69 34.83 23.73 35.04 23.73 35.11C23.71 35.8 23.47 36.23 22.97 36.47C22.48 36.72 21.96 36.69 21.54 36.34C21.12 35.99 20.72 35.59 20.36 35.17C19.94 34.69 19.97 33.94 20.36 33.46V33.47ZM40.88 49.47C40.03 48.59 39.17 47.73 38.29 46.88C38.08 46.67 38.09 46.59 38.32 46.41C38.73 46.08 39.1 45.7 39.46 45.32C39.86 44.9 39.86 44.37 39.49 43.99C39.12 43.61 38.56 43.62 38.13 44.02C38.08 44.06 38.04 44.1 38 44.15C37.09 45.38 35.8 45.56 34.4 45.45C33.48 45.38 32.55 45.29 31.62 45.38C30.84 45.45 30.16 45.72 29.6 46.29C28.57 47.34 27.52 48.36 26.49 49.41C26.3 49.61 26.2 49.63 25.99 49.41C23.3 46.71 20.59 44.01 17.88 41.32C17.66 41.1 17.68 40.99 17.89 40.78C18.74 39.95 19.59 39.11 20.42 38.26C20.6 38.07 20.73 38.05 20.97 38.16C23.06 39.12 25.36 37.82 25.58 35.54C25.6 35.3 25.68 35.24 25.9 35.2C27.65 34.94 28.56 34.02 28.84 32.22C28.87 32.03 28.94 31.97 29.13 31.95C30.92 31.68 31.83 30.78 32.11 29C32.15 28.76 32.23 28.71 32.46 28.69C34.16 28.53 35.42 27.13 35.41 25.39C35.39 24.96 35.3 24.47 35.05 24.03C34.95 23.85 34.97 23.74 35.12 23.6C35.95 22.79 36.75 21.95 37.59 21.15C38.18 20.58 39 20.59 39.54 21.13C40.09 21.68 40.08 22.51 39.49 23.12C38.97 23.65 38.44 24.17 37.92 24.69C37.45 25.17 37.4 25.72 37.79 26.12C38.19 26.53 38.76 26.49 39.26 26C39.53 25.74 39.78 25.47 40.05 25.22C40.62 24.68 41.43 24.67 41.97 25.18C42.52 25.71 42.55 26.54 42 27.13C41.47 27.69 40.91 28.22 40.37 28.77C39.9 29.25 39.85 29.8 40.25 30.2C40.64 30.6 41.21 30.56 41.68 30.1C41.97 29.82 42.24 29.52 42.54 29.25C43.12 28.72 43.93 28.75 44.46 29.28C44.96 29.79 44.99 30.61 44.48 31.17C43.99 31.7 43.46 32.2 42.95 32.72C42.48 33.19 42.44 33.76 42.83 34.15C43.23 34.55 43.78 34.52 44.26 34.05C44.49 33.82 44.71 33.58 44.95 33.36C45.56 32.81 46.36 32.81 46.91 33.35C47.45 33.88 47.45 34.71 46.88 35.3C46.2 36 45.5 36.67 44.82 37.37C44.43 37.77 44.45 38.34 44.82 38.7C45.18 39.06 45.7 39.06 46.12 38.7C46.19 38.64 46.26 38.57 46.32 38.51C46.62 38.2167 46.9167 38.2167 47.21 38.51C47.99 39.29 48.76 40.07 49.55 40.83C49.75 41.02 49.77 41.12 49.55 41.33C46.84 44.02 44.14 46.72 41.44 49.42C41.26 49.61 41.15 49.66 40.94 49.44L40.88 49.47ZM55.11 45.19C51.81 48.49 48.51 51.79 45.21 55.08C44.62 55.67 43.93 55.65 43.33 55.08C42.81 54.58 42.29 54.07 41.79 53.54C41.24 52.96 41.23 52.26 41.79 51.69C45.08 48.39 48.38 45.09 51.69 41.8C52.28 41.22 52.98 41.23 53.58 41.81C54.09 42.3 54.59 42.81 55.09 43.31C55.35 43.57 55.51 43.87 55.53 44.25C55.53 44.63 55.38 44.94 55.12 45.2L55.11 45.19Z" fill="white"/>
<path d="M21.17 15.12C21.62 15.56 22.18 15.59 22.57 15.21C22.96 14.83 22.94 14.26 22.5 13.81C21.41 12.71 20.32 11.63 19.22 10.54C19.03 10.35 18.81 10.22 18.62 10.22C18.11 10.22 17.81 10.41 17.66 10.79C17.49 11.21 17.61 11.57 17.93 11.88C19.01 12.96 20.09 14.04 21.18 15.11L21.17 15.12Z" fill="white"/>
<path d="M45.01 15.39C45.41 15.57 45.79 15.48 46.11 15.16C47.21 14.06 48.32 12.96 49.41 11.85C49.82 11.43 49.83 10.86 49.45 10.49C49.07 10.11 48.52 10.12 48.09 10.54C46.98 11.63 45.88 12.74 44.78 13.84C44.59 14.03 44.46 14.25 44.47 14.5C44.47 14.93 44.65 15.23 45 15.38L45.01 15.39Z" fill="white"/>
<path d="M33.64 15.99C34.2 16 34.58 15.6 34.59 14.97C34.59 14.32 34.59 13.67 34.59 13.02C34.59 12.37 34.59 11.66 34.59 10.98C34.59 10.37 34.22 9.97 33.68 9.96C33.13 9.95 32.73 10.37 32.73 10.98C32.73 12.31 32.73 13.64 32.73 14.97C32.73 15.57 33.11 15.97 33.64 15.99Z" fill="white"/>
<path d="M16.47 49.86C15.98 49.87 15.57 50.29 15.56 50.78C15.56 51.3 15.96 51.72 16.49 51.72C17.02 51.72 17.43 51.31 17.42 50.79C17.42 50.28 16.97 49.85 16.47 49.86Z" fill="white"/>
<path d="M42.71 41.69C42.71 41.19 42.26 40.75 41.76 40.76C41.26 40.76 40.86 41.17 40.85 41.68C40.84 42.21 41.25 42.62 41.77 42.63C42.29 42.63 42.72 42.21 42.72 41.7L42.71 41.69Z" fill="white"/>
</svg>
