<svg width="68" height="68" viewBox="0 0 68 68" fill="none" xmlns="http://www.w3.org/2000/svg">
<path d="M33.71 67.42C52.3275 67.42 67.42 52.3275 67.42 33.71C67.42 15.0925 52.3275 0 33.71 0C15.0925 0 0 15.0925 0 33.71C0 52.3275 15.0925 67.42 33.71 67.42Z" fill="#1E9B46"/>
<path d="M40.1 44.41C39.95 44.39 39.8 44.4 39.65 44.4C37.67 44.4 35.69 44.4 33.7 44.4C31.63 44.4 29.57 44.4 27.5 44.4C26.99 44.4 26.68 44.69 26.68 45.13C26.68 45.58 26.98 45.87 27.49 45.89C27.57 45.89 27.66 45.89 27.74 45.89C31.72 45.89 35.7 45.89 39.68 45.89C39.88 45.89 40.08 45.91 40.27 45.82C40.62 45.66 40.77 45.39 40.72 45.02C40.67 44.66 40.45 44.46 40.1 44.4V44.41Z" fill="white"/>
<path d="M38.85 42.94C39.23 42.94 39.62 42.96 40 42.94C40.46 42.91 40.72 42.64 40.73 42.22C40.73 41.8 40.48 41.49 40.03 41.47C39.26 41.44 38.5 41.44 37.73 41.47C37.28 41.49 37.01 41.82 37.01 42.22C37.01 42.62 37.3 42.92 37.75 42.95C38.12 42.97 38.48 42.95 38.85 42.95V42.94Z" fill="white"/>
<path d="M30.78 42.21C30.78 41.8 30.44 41.46 30.02 41.45C29.61 41.45 29.29 41.75 29.28 42.15C29.26 42.58 29.57 42.91 30 42.93C30.42 42.94 30.77 42.61 30.78 42.2V42.21Z" fill="white"/>
<path d="M33.38 42.23C33.4 41.83 33.06 41.47 32.64 41.46C32.21 41.45 31.88 41.77 31.88 42.2C31.88 42.61 32.17 42.92 32.58 42.95C33 42.97 33.36 42.65 33.38 42.24V42.23Z" fill="white"/>
<path d="M28.18 42.21C28.18 41.8 27.84 41.46 27.42 41.46C27.01 41.46 26.7 41.76 26.68 42.17C26.66 42.6 26.97 42.93 27.4 42.94C27.82 42.95 28.17 42.62 28.18 42.21Z" fill="white"/>
<path d="M42.59 29.71C42.33 29.53 42.22 29.46 42.49 29.16C44.21 27.16 43.89 24.12 41.81 22.5C39.71 20.86 36.67 21.3 35.15 23.48C34.91 23.82 34.83 24.33 34.52 24.53C34.21 24.73 33.71 24.45 33.3 24.56C32.96 24.65 32.83 24.53 32.68 24.22C31.42 21.51 28.02 20.68 25.63 22.49C23.61 24.02 23.02 27.19 25.17 29.48C25.01 29.58 24.88 29.66 24.76 29.75C22.92 31.04 21.95 32.81 21.82 35.05C21.78 35.66 22.12 36.05 22.63 36.01C23.05 35.97 23.28 35.68 23.32 35.12C23.46 33.12 24.38 31.62 26.16 30.67C26.44 30.52 26.69 30.46 27.01 30.59C27.57 30.81 28.18 30.87 28.78 30.81C29.15 30.77 29.39 30.81 29.53 31.23C29.66 31.62 29.91 31.97 30.22 32.26C30.43 32.46 30.37 32.55 30.15 32.69C29.5 33.08 28.95 33.59 28.49 34.18C27.58 35.36 27.09 36.7 27.09 38.2C27.09 38.69 27.35 38.99 27.78 39.02C28.21 39.05 28.51 38.78 28.58 38.3C28.59 38.2 28.59 38.1 28.6 38C28.75 35.98 29.75 34.54 31.54 33.62C31.76 33.51 31.95 33.49 32.2 33.58C33.21 33.93 34.23 33.94 35.24 33.58C35.51 33.49 35.72 33.52 35.95 33.63C37.43 34.39 38.37 35.57 38.75 37.2C38.84 37.58 38.82 37.96 38.88 38.34C38.95 38.79 39.25 39.03 39.67 39.01C40.08 38.99 40.36 38.7 40.36 38.25C40.36 37.92 40.35 37.58 40.29 37.26C39.95 35.3 38.96 33.77 37.29 32.68C37.07 32.54 37.03 32.45 37.23 32.25C37.56 31.92 37.81 31.52 37.98 31.08C38.07 30.83 38.21 30.77 38.46 30.8C39.01 30.86 39.59 30.91 40.09 30.68C40.79 30.36 41.3 30.64 41.83 31C42.28 31.3 42.67 31.66 43 32.08C43.72 33 44.08 34.06 44.12 35.22C44.13 35.55 44.27 35.79 44.57 35.94C44.84 36.07 45.09 36.02 45.32 35.85C45.6 35.63 45.64 35.32 45.61 34.99C45.45 32.75 44.47 30.99 42.62 29.72L42.59 29.71ZM29.1 28.72C29.06 29.23 28.88 29.4 28.48 29.31C26.82 29.28 25.54 28.11 25.33 26.5C25.14 25.04 26.12 23.57 27.58 23.13C29.03 22.7 30.63 23.4 31.3 24.74C31.43 24.99 31.41 25.12 31.15 25.29C29.93 26.11 29.2 27.24 29.09 28.71L29.1 28.72ZM33.72 32.32C31.98 32.32 30.57 30.94 30.55 29.19C30.53 27.45 31.99 25.99 33.72 26.01C35.45 26.02 36.86 27.45 36.86 29.18C36.86 30.92 35.45 32.32 33.71 32.32H33.72ZM42.08 26.58C41.82 28.18 40.56 29.29 38.91 29.3C38.53 29.39 38.37 29.2 38.33 28.73C38.22 27.28 37.51 26.14 36.32 25.33C36 25.11 36 24.96 36.16 24.66C36.9 23.31 38.5 22.67 39.97 23.17C41.4 23.66 42.32 25.14 42.08 26.58Z" fill="white"/>
<path d="M56.41 44.09C56.27 42.49 55.11 41.08 53.52 40.62C53.23 40.54 53.12 40.44 53.13 40.12C53.14 35.83 53.14 31.55 53.13 27.26C53.13 26.98 53.19 26.86 53.48 26.78C55.12 26.3 56.28 24.91 56.42 23.3C56.56 21.6 55.68 20.02 54.17 19.28C52.63 18.53 50.87 18.79 49.6 20.01C49.36 20.24 49.21 20.21 48.97 20.07C45.27 17.93 41.57 15.79 37.87 13.66C37.61 13.51 37.56 13.37 37.63 13.08C38.1 11.12 37.13 9.19 35.3 8.4C34.99 8.27 34.65 8.18 34.33 8.08H33.13C33.13 8.08 33.06 8.15 33.02 8.16C30.65 8.65 29.27 10.77 29.84 13.13C29.93 13.49 29.75 13.56 29.54 13.68C25.85 15.81 22.16 17.94 18.48 20.07C18.24 20.21 18.09 20.24 17.85 20.01C16.59 18.8 14.85 18.53 13.32 19.26C11.78 20 10.88 21.57 11.03 23.3C11.16 24.91 12.33 26.31 13.96 26.78C14.24 26.86 14.31 26.98 14.31 27.26C14.31 31.55 14.31 35.83 14.31 40.12C14.31 40.39 14.26 40.52 13.97 40.61C12.32 41.09 11.16 42.47 11.03 44.08C10.88 45.78 11.76 47.36 13.27 48.1C14.8 48.86 16.56 48.59 17.85 47.38C18.09 47.16 18.23 47.17 18.48 47.32C22.16 49.46 25.85 51.59 29.54 53.71C29.83 53.88 29.91 54.02 29.82 54.36C29.41 55.97 30.08 57.66 31.46 58.61C32.84 59.55 34.63 59.56 36.01 58.61C37.38 57.68 38.05 55.98 37.65 54.36C37.56 54.02 37.64 53.88 37.93 53.71C41.6 51.61 45.26 49.5 48.91 47.37C49.24 47.18 49.41 47.18 49.7 47.45C50.93 48.6 52.71 48.84 54.2 48.11C55.71 47.37 56.59 45.79 56.44 44.09H56.41ZM52.39 20.06C53.96 20.06 55.24 21.34 55.24 22.91C55.24 24.48 53.96 25.76 52.39 25.76C50.82 25.76 49.54 24.48 49.54 22.91C49.54 21.34 50.82 20.06 52.39 20.06ZM33.7 9.28C35.27 9.28 36.55 10.56 36.55 12.13C36.55 13.7 35.27 14.98 33.7 14.98C32.13 14.98 30.85 13.7 30.85 12.13C30.85 10.56 32.13 9.28 33.7 9.28ZM12.16 22.91C12.16 21.34 13.44 20.06 15.01 20.06C16.58 20.06 17.86 21.34 17.86 22.91C17.86 24.48 16.58 25.76 15.01 25.76C13.44 25.76 12.16 24.48 12.16 22.91ZM15.01 47.22C13.44 47.22 12.16 45.94 12.16 44.37C12.16 42.8 13.44 41.52 15.01 41.52C16.58 41.52 17.86 42.8 17.86 44.37C17.86 45.94 16.58 47.22 15.01 47.22ZM33.7 58.09C32.13 58.09 30.85 56.81 30.85 55.24C30.85 53.67 32.13 52.39 33.7 52.39C35.27 52.39 36.55 53.67 36.55 55.24C36.55 56.81 35.27 58.09 33.7 58.09ZM49 41.68C48.32 41.27 47.62 40.87 46.93 40.48C46.44 40.21 46.04 40.29 45.8 40.69C45.57 41.09 45.7 41.49 46.17 41.77C46.83 42.16 47.49 42.54 48.16 42.91C48.44 43.06 48.57 43.2 48.46 43.57C48.27 44.18 48.29 44.82 48.46 45.45C48.54 45.73 48.5 45.88 48.22 46.04C44.5 48.17 40.78 50.32 37.07 52.47C36.86 52.59 36.73 52.63 36.53 52.42C36.05 51.92 35.47 51.56 34.78 51.4C34.49 51.33 34.43 51.19 34.43 50.91C34.45 50.13 34.44 49.34 34.43 48.56C34.43 47.99 34.15 47.68 33.7 47.67C33.22 47.67 32.94 47.98 32.94 48.57C32.94 49.34 32.93 50.1 32.94 50.87C32.94 51.16 32.89 51.32 32.58 51.4C31.9 51.56 31.32 51.92 30.84 52.42C30.69 52.57 30.59 52.62 30.38 52.5C26.62 50.32 22.86 48.15 19.1 45.99C18.89 45.87 18.83 45.75 18.9 45.51C19.1 44.82 19.1 44.13 18.9 43.44C18.83 43.2 18.9 43.09 19.11 42.97C19.8 42.59 20.47 42.19 21.14 41.8C21.67 41.49 21.82 41.12 21.6 40.7C21.37 40.26 20.94 40.19 20.4 40.49C19.72 40.88 19.04 41.26 18.37 41.67C18.15 41.81 18.01 41.8 17.82 41.6C17.35 41.11 16.78 40.76 16.12 40.6C15.8 40.52 15.75 40.37 15.75 40.08C15.76 37.95 15.75 35.81 15.75 33.68C15.75 31.55 15.75 29.48 15.75 27.38C15.75 27.02 15.8 26.82 16.21 26.73C16.8 26.6 17.33 26.29 17.74 25.83C18.01 25.53 18.21 25.59 18.49 25.76C19.13 26.15 19.78 26.52 20.43 26.88C20.94 27.17 21.36 27.08 21.59 26.67C21.81 26.27 21.67 25.88 21.18 25.59C20.49 25.18 19.81 24.78 19.1 24.4C18.86 24.27 18.81 24.13 18.89 23.89C19.08 23.22 19.08 22.54 18.89 21.87C18.82 21.64 18.87 21.51 19.09 21.39C22.85 19.23 26.61 17.06 30.37 14.88C30.57 14.76 30.67 14.79 30.83 14.95C31.33 15.46 31.92 15.82 32.62 15.99C32.88 16.05 32.95 16.19 32.94 16.45C32.92 17.17 32.94 17.88 32.94 18.6C32.94 19.37 33.18 19.72 33.7 19.71C34.22 19.71 34.44 19.36 34.44 18.58C34.44 17.88 34.45 17.18 34.44 16.48C34.44 16.21 34.48 16.06 34.78 15.99C35.46 15.84 36.05 15.48 36.53 14.98C36.72 14.78 36.85 14.79 37.07 14.92C40.78 17.07 44.5 19.22 48.22 21.36C48.49 21.51 48.55 21.65 48.47 21.94C48.29 22.58 48.28 23.23 48.47 23.86C48.57 24.17 48.46 24.3 48.21 24.44C47.54 24.81 46.88 25.2 46.22 25.58C45.7 25.88 45.55 26.28 45.79 26.69C46.03 27.1 46.44 27.17 46.96 26.88C47.65 26.49 48.35 26.09 49.03 25.68C49.24 25.56 49.36 25.56 49.54 25.74C50.03 26.25 50.64 26.61 51.33 26.77C51.59 26.83 51.63 26.96 51.63 27.19C51.63 31.51 51.63 35.83 51.63 40.15C51.63 40.41 51.56 40.52 51.29 40.59C50.63 40.75 50.05 41.08 49.58 41.57C49.38 41.78 49.23 41.8 48.99 41.65L49 41.68ZM52.39 47.22C50.82 47.22 49.54 45.94 49.54 44.37C49.54 42.8 50.82 41.52 52.39 41.52C53.96 41.52 55.24 42.8 55.24 44.37C55.24 45.94 53.96 47.22 52.39 47.22Z" fill="white"/>
</svg>
